<?xml version="1.0" encoding="UTF-8" standalone="no"?>
<svg width="111px" height="98px" viewBox="0 0 111 98" version="1.1" xmlns="http://www.w3.org/2000/svg" xmlns:xlink="http://www.w3.org/1999/xlink">
    <!-- Generator: Sketch 3.6.1 (26313) - http://www.bohemiancoding.com/sketch -->
    <title>Slice 1</title>
    <desc>Created with Sketch.</desc>
    <defs></defs>
    <g id="Page-1" stroke="none" stroke-width="1" fill="none" fill-rule="evenodd">
        <path d="M96.3451012,69.0008103 L97.6367187,50.4490376 L73.8506849,48.805923 L72.8624232,70.0683485 C72.8624232,70.0683485 30.0774666,73.0996112 40.8782564,42.1964184 C51.6790462,11.2932257 89.8451047,25.8676951 89.8451047,25.8676951 L90.2422784,4.39606678 C90.2422784,4.39606678 58.973022,-7.56465107 36.7275856,7.97179104 C32.9783397,3.12257956 27.1038286,0 20.5,0 C9.17816263,0 0,9.17816263 0,20.5 C0,30.7227929 7.48274687,39.1978967 17.269902,40.7469727 C17.2494924,40.842013 17.2292044,40.9372643 17.2090383,41.0327272 C7.40862661,87.4263981 59.6980494,90.8374041 83.557723,90.0450708 C85.949331,94.7649123 90.8468679,98 96.5,98 C104.508129,98 111,91.5081289 111,83.5 C111,75.4918711 104.508129,69 96.5,69 C96.4483034,69 96.39667,69.0002705 96.3451012,69.0008103 Z M36.7275856,7.97179104 C28.1020058,13.9959849 20.8331301,24.1542941 17.269902,40.7469727 C18.3221114,40.9135127 19.4009556,41 20.5,41 C31.8218374,41 41,31.8218374 41,20.5 C41,15.7819913 39.4061795,11.4362392 36.7275856,7.97179104 Z M96.3451012,69.0008103 L94.9359374,89.2409239 C94.9359374,89.2409239 90.4240724,89.8170526 83.557723,90.0450708 C82.5614207,88.0788667 82,85.8549967 82,83.5 C82,75.5435677 88.408325,69.0838799 96.3451012,69.0008103 Z" id="Combined-Shape" fill="#CEA67E"></path>
    </g>
</svg>